<svg width="current" height="current" viewBox="0 0 18 24" fill="none" xmlns="http://www.w3.org/2000/svg">
<path fill-rule="evenodd" clip-rule="evenodd" d="M0.878694 0.878694C0.316076 1.44131 0 2.20439 0 3.00005V23.2504C7.00818e-05 23.386 0.0369366 23.5191 0.106673 23.6355C0.176409 23.7519 0.276403 23.8472 0.396006 23.9112C0.515608 23.9752 0.650339 24.0056 0.78585 23.9991C0.92136 23.9927 1.05257 23.9495 1.16552 23.8744L9.00014 19.6518L16.8348 23.8744C16.9477 23.9495 17.0789 23.9927 17.2144 23.9991C17.35 24.0056 17.4847 23.9752 17.6043 23.9112C17.7239 23.8472 17.8239 23.7519 17.8936 23.6355C17.9634 23.5191 18.0002 23.386 18.0003 23.2504V3.00005C18.0003 2.20439 17.6842 1.44131 17.1216 0.878694C16.559 0.316076 15.7959 0 15.0002 0H3.00005C2.20439 0 1.44131 0.316076 0.878694 0.878694Z" fill="current"/>
</svg>
