<svg width="current" height="current" viewBox="0 0 18 24" fill="none" xmlns="http://www.w3.org/2000/svg">
<path d="M-0.000244141 3.00005C-0.000244141 2.20439 0.315831 1.44131 0.87845 0.878694C1.44107 0.316076 2.20414 0 2.9998 0L15 0C15.7957 0 16.5587 0.316076 17.1214 0.878694C17.684 1.44131 18 2.20439 18 3.00005V23.2504C18 23.386 17.9631 23.5191 17.8934 23.6355C17.8236 23.7519 17.7236 23.8472 17.604 23.9112C17.4844 23.9752 17.3497 24.0056 17.2142 23.9991C17.0787 23.9927 16.9475 23.9495 16.8345 23.8744L8.9999 19.6518L1.16527 23.8744C1.05233 23.9495 0.921116 23.9927 0.785606 23.9991C0.650095 24.0056 0.515364 23.9752 0.395761 23.9112C0.276159 23.8472 0.176165 23.7519 0.106429 23.6355C0.0366925 23.5191 -0.000174059 23.386 -0.000244141 23.2504V3.00005ZM2.9998 1.50002C2.60197 1.50002 2.22044 1.65806 1.93913 1.93937C1.65782 2.22068 1.49978 2.60222 1.49978 3.00005V21.8494L8.58439 18.1263C8.70749 18.0444 8.85205 18.0007 8.9999 18.0007C9.14776 18.0007 9.29232 18.0444 9.41541 18.1263L16.5 21.8494V3.00005C16.5 2.60222 16.342 2.22068 16.0607 1.93937C15.7794 1.65806 15.3978 1.50002 15 1.50002H2.9998Z" fill="current"/>
</svg>
