<svg width="current" height="current" viewBox="0 0 22 24" fill="none" xmlns="http://www.w3.org/2000/svg">
<path d="M7.00068 8.80023C7.21286 8.80023 7.41634 8.88452 7.56637 9.03455C7.7164 9.18458 7.80068 9.38806 7.80068 9.60023V19.2002C7.80068 19.4124 7.7164 19.6159 7.56637 19.7659C7.41634 19.9159 7.21286 20.0002 7.00068 20.0002C6.78851 20.0002 6.58503 19.9159 6.435 19.7659C6.28497 19.6159 6.20068 19.4124 6.20068 19.2002V9.60023C6.20068 9.38806 6.28497 9.18458 6.435 9.03455C6.58503 8.88452 6.78851 8.80023 7.00068 8.80023ZM11.0007 8.80023C11.2129 8.80023 11.4163 8.88452 11.5664 9.03455C11.7164 9.18458 11.8007 9.38806 11.8007 9.60023V19.2002C11.8007 19.4124 11.7164 19.6159 11.5664 19.7659C11.4163 19.9159 11.2129 20.0002 11.0007 20.0002C10.7885 20.0002 10.585 19.9159 10.435 19.7659C10.285 19.6159 10.2007 19.4124 10.2007 19.2002V9.60023C10.2007 9.38806 10.285 9.18458 10.435 9.03455C10.585 8.88452 10.7885 8.80023 11.0007 8.80023ZM15.8007 9.60023C15.8007 9.38806 15.7164 9.18458 15.5664 9.03455C15.4163 8.88452 15.2129 8.80023 15.0007 8.80023C14.7885 8.80023 14.585 8.88452 14.435 9.03455C14.285 9.18458 14.2007 9.38806 14.2007 9.60023V19.2002C14.2007 19.4124 14.285 19.6159 14.435 19.7659C14.585 19.9159 14.7885 20.0002 15.0007 20.0002C15.2129 20.0002 15.4163 19.9159 15.5664 19.7659C15.7164 19.6159 15.8007 19.4124 15.8007 19.2002V9.60023Z" fill="current"/>
<path fill-rule="evenodd" clip-rule="evenodd" d="M21.4001 4.8C21.4001 5.22435 21.2315 5.63131 20.9315 5.93137C20.6314 6.23143 20.2244 6.4 19.8001 6.4H19.0001V20.8C19.0001 21.6487 18.663 22.4626 18.0628 23.0627C17.4627 23.6629 16.6488 24 15.8001 24H6.2001C5.35141 24 4.53747 23.6629 3.93736 23.0627C3.33724 22.4626 3.0001 21.6487 3.0001 20.8V6.4H2.2001C1.77575 6.4 1.36879 6.23143 1.06873 5.93137C0.768669 5.63131 0.600098 5.22435 0.600098 4.8V3.2C0.600098 2.77565 0.768669 2.36869 1.06873 2.06863C1.36879 1.76857 1.77575 1.6 2.2001 1.6H7.8001C7.8001 1.17565 7.96867 0.768687 8.26873 0.468629C8.56879 0.168571 8.97575 0 9.4001 0L12.6001 0C13.0244 0 13.4314 0.168571 13.7315 0.468629C14.0315 0.768687 14.2001 1.17565 14.2001 1.6H19.8001C20.2244 1.6 20.6314 1.76857 20.9315 2.06863C21.2315 2.36869 21.4001 2.77565 21.4001 3.2V4.8ZM4.7889 6.4L4.6001 6.4944V20.8C4.6001 21.2243 4.76867 21.6313 5.06873 21.9314C5.36879 22.2314 5.77575 22.4 6.2001 22.4H15.8001C16.2244 22.4 16.6314 22.2314 16.9315 21.9314C17.2315 21.6313 17.4001 21.2243 17.4001 20.8V6.4944L17.2113 6.4H4.7889ZM2.2001 4.8V3.2H19.8001V4.8H2.2001Z" fill="current"/>
</svg>
